# xmcd CD database file
#
# Track frame offsets:
#	150
#	13463
#	29506
#	52101
#	67349
#	89498
#	109518
#	129212
#	151937
#	170194
#	186824
#	205201
#
# Disc length: 3007 seconds
#
# Revision: 0
# Processed by: cddbd v1.5.2PL0 Copyright (c) Steve Scherf et al.
# Submitted via: CDex 1.70beta2
#
DISCID=af0bbd0c
DTITLE=Bryan Dean Trio - Pink Elephant
DYEAR=2007
DGENRE=Blues
TTITLE0=Have Mercy
TTITLE1=Keep Walking
TTITLE2=Monkey on My Back
TTITLE3=Should I Stay or Should I Go
TTITLE4=Find My Way Back to You
TTITLE5=Pink Elephant
TTITLE6=I Don't Know Why
TTITLE7=My Baby Don't Like Me No More
TTITLE8=Bad News
TTITLE9=Thirteen Women
TTITLE10=The Hair on My Chinny Chin Chin
TTITLE11=I Put a Spell on You
EXTD=YEAR: 2007
EXTT0=
EXTT1=
EXTT2=
EXTT3=
EXTT4=
EXTT5=
EXTT6=
EXTT7=
EXTT8=
EXTT9=
EXTT10=
EXTT11=
PLAYORDER=
